<?xml version="1.0" standalone="no"?>
<!DOCTYPE svg PUBLIC "-//W3C//DTD SVG 20010904//EN"
 "http://www.w3.org/TR/2001/REC-SVG-20010904/DTD/svg10.dtd">
<svg version="1.0" xmlns="http://www.w3.org/2000/svg"
 width="50px" height="34px" viewBox="0 0 192.000000 192.000000"
 preserveAspectRatio="xMidYMid meet">

<g transform="translate(0.000000,192.000000) scale(0.100000,-0.100000)"
fill="#000000" stroke="none">
<path d="M926 1744 c-10 -25 -7 -74 4 -74 6 0 14 10 19 22 l8 23 7 -23 c13
-41 36 -26 36 23 0 25 -4 45 -10 45 -5 0 -10 -12 -10 -27 l-1 -28 -15 28 c-17
31 -29 34 -38 11z"/>
<path d="M1076 1741 c-3 -4 -8 -28 -11 -52 -6 -38 -4 -42 7 -28 7 9 22 18 33
20 29 6 27 49 -2 60 -12 4 -25 5 -27 0z m34 -31 c0 -5 -4 -10 -10 -10 -5 0
-10 5 -10 10 0 6 5 10 10 10 6 0 10 -4 10 -10z"/>
<path d="M810 1715 c-21 -25 -8 -50 28 -53 19 -2 32 1 32 8 0 7 -8 9 -21 5
-15 -5 -19 -4 -15 4 4 6 14 11 22 11 17 0 18 12 2 28 -16 16 -33 15 -48 -3z"/>
<path d="M710 1685 c-19 -23 -8 -50 23 -53 15 -2 27 1 27 7 0 6 -9 11 -20 11
-11 0 -20 7 -20 15 0 8 5 15 10 15 6 0 10 5 10 10 0 15 -16 12 -30 -5z"/>
<path d="M1182 1668 c-30 -30 3 -77 40 -57 22 12 24 55 2 63 -22 8 -28 8 -42
-6z m36 -25 c-4 -22 -22 -20 -26 1 -2 10 3 16 13 16 10 0 15 -7 13 -17z"/>
<path d="M602 1630 c-18 -17 -20 -25 -12 -40 13 -23 52 -26 70 -5 9 11 8 19
-7 39 -22 31 -24 31 -51 6z m33 -28 c0 -18 -20 -15 -23 4 -3 10 1 15 10 12 7
-3 13 -10 13 -16z"/>
<path d="M1295 1610 c-3 -6 -3 -20 1 -33 6 -20 5 -21 -11 -7 -16 13 -18 13
-13 0 2 -8 15 -17 28 -18 20 -3 22 -1 16 24 -6 24 -5 26 8 15 10 -9 16 -10 16
-3 0 17 -37 34 -45 22z"/>
<path d="M480 1551 c-8 -16 -4 -24 21 -45 17 -14 35 -26 40 -26 12 0 11 17 -1
25 -8 5 -8 11 0 20 16 19 1 45 -26 45 -13 0 -28 -9 -34 -19z m48 -12 c-2 -6
-8 -10 -13 -10 -5 0 -11 4 -13 10 -2 6 4 11 13 11 9 0 15 -5 13 -11z"/>
<path d="M1367 1529 c-28 -16 -15 -69 17 -69 6 0 5 5 -2 12 -19 19 -14 33 6
15 20 -19 32 -13 32 14 0 24 -30 40 -53 28z m33 -19 c0 -5 -2 -10 -4 -10 -3 0
-8 5 -11 10 -3 6 -1 10 4 10 6 0 11 -4 11 -10z"/>
<path d="M882 1356 c5 -60 4 -66 -14 -66 -10 0 -38 9 -60 20 -23 11 -43 20
-45 20 -11 0 1 -24 27 -54 33 -37 27 -46 -30 -46 -49 0 -42 -18 15 -39 31 -12
60 -21 66 -21 24 0 -4 -18 -37 -23 -20 -3 -42 -11 -50 -18 -19 -16 -19 -118 1
-146 14 -20 14 -23 0 -31 -13 -6 -15 -22 -13 -67 3 -63 15 -76 79 -89 25 -5
26 -8 19 -50 -8 -56 -24 -76 -62 -76 -19 0 -40 -10 -59 -29 -36 -37 -39 -89
-7 -134 l22 -30 -43 -39 c-28 -25 -41 -43 -37 -53 5 -14 9 -14 33 2 71 44 146
108 170 144 25 37 25 43 15 89 -9 39 -8 58 3 97 23 75 26 77 84 69 28 -4 58
-9 67 -13 29 -11 55 -81 57 -156 l2 -72 58 -9 c64 -9 99 5 119 49 24 53 -32
135 -94 135 -18 0 -40 5 -48 11 -12 8 -10 9 8 4 26 -8 30 11 7 41 -22 29 -18
37 20 32 19 -2 35 -1 35 2 0 12 -45 48 -83 67 l-39 19 40 12 c22 7 44 18 50
25 16 19 18 123 3 141 -10 12 -10 19 3 38 19 27 22 118 4 136 -7 7 -20 12 -30
12 -27 0 -30 19 -13 75 18 62 18 65 1 65 -8 0 -26 -30 -42 -66 l-28 -66 -53 4
c-29 3 -55 7 -58 10 -3 3 -14 34 -24 69 -25 89 -46 92 -39 5z m36 -43 c36
-136 36 -143 14 -143 -17 0 -20 9 -26 78 -4 42 -10 92 -13 110 -10 59 5 33 25
-45z m178 -38 c-17 -57 -28 -81 -41 -84 -20 -3 -22 -10 26 105 40 96 46 86 15
-21z m-254 9 c38 -13 47 -20 52 -46 13 -64 9 -71 -29 -64 -19 4 -51 15 -72 24
l-38 17 48 3 c52 3 59 14 23 37 -13 9 -27 23 -30 31 -7 17 -9 17 46 -2z m208
-28 c0 -2 -7 -20 -15 -40 -13 -29 -20 -36 -44 -36 -25 0 -30 5 -39 40 l-10 40
54 0 c30 0 54 -2 54 -4z m108 -72 c2 -41 -1 -64 -10 -71 -7 -5 -53 -15 -103
-22 -133 -18 -238 -41 -253 -55 -7 -7 -10 -20 -7 -28 7 -17 45 -32 45 -17 0 5
-7 9 -16 9 -9 0 -14 7 -12 17 2 12 20 21 58 30 30 6 55 11 56 10 1 -1 4 -18 6
-37 3 -31 0 -35 -27 -41 -55 -12 -112 -10 -125 6 -7 8 -11 35 -8 64 1 27 0 47
-4 44 -14 -8 -8 14 6 26 8 7 83 23 167 37 85 13 164 31 176 40 25 16 30 39 11
48 -7 3 -2 4 12 3 23 -2 25 -6 28 -63z m-40 34 c-6 -18 -28 -21 -28 -4 0 9 7
16 16 16 9 0 14 -5 12 -12z m-93 -177 c-7 -31 -25 -43 -25 -17 0 8 -3 21 -6
29 -3 10 1 17 13 19 25 6 26 4 18 -31z m45 30 c0 -5 10 -11 23 -13 12 -2 22
-7 22 -13 0 -10 -73 -41 -80 -33 -8 7 16 68 26 68 5 0 9 -4 9 -9z m76 -3 c6
-10 9 -84 5 -129 -2 -12 -79 -29 -200 -44 -133 -16 -182 -35 -160 -61 6 -8 19
-14 27 -14 13 0 13 2 -3 13 -21 16 -11 25 41 37 27 6 34 5 34 -7 0 -33 -21
-53 -56 -53 -58 0 -72 13 -69 65 1 24 -2 42 -6 39 -5 -3 -9 2 -9 10 0 18 6 20
153 46 157 27 222 49 222 75 0 12 -9 22 -25 26 -23 7 -23 7 7 8 17 1 35 -5 39
-11z m-161 -29 c5 -22 3 -34 -6 -40 -20 -13 -39 -11 -39 4 0 6 -3 22 -6 34 -5
20 1 26 38 32 3 0 9 -13 13 -30z m35 -166 c1 -29 35 -96 68 -130 23 -25 38
-33 66 -33 42 0 92 -40 102 -82 5 -22 0 -34 -25 -59 -27 -27 -36 -30 -64 -24
-18 4 -41 8 -52 9 -18 2 -20 9 -17 60 5 70 -29 146 -87 199 -57 52 -60 74 -8
76 10 1 17 -6 17 -16z m97 -17 c49 -25 53 -40 9 -32 -42 8 -43 5 -14 -34 25
-35 22 -44 -12 -27 -26 13 -55 57 -65 99 -7 26 -6 27 22 19 16 -5 43 -16 60
-25z m-164 11 c3 -8 -10 -25 -28 -40 -47 -37 -76 -127 -68 -211 5 -60 4 -64
-27 -100 -35 -39 -158 -132 -165 -124 -3 3 13 19 35 37 45 36 49 52 20 88 -29
37 -26 79 9 114 16 16 40 29 53 29 37 0 58 21 65 65 3 22 14 52 25 67 10 15
24 41 29 58 11 31 42 41 52 17z m57 -71 c0 -4 -10 -6 -22 -2 -13 3 -34 6 -48
6 l-25 1 23 19 c23 19 25 19 48 2 13 -9 24 -21 24 -26z"/>
<path d="M1124 665 c-19 -30 -11 -81 16 -95 28 -15 66 -12 84 6 22 21 20 77
-2 97 -28 26 -78 22 -98 -8z m88 -2 c32 -28 16 -93 -23 -93 -49 0 -81 49 -59
90 13 25 56 26 82 3z"/>
<path d="M731 614 c-26 -33 -27 -58 -1 -84 29 -29 76 -26 96 5 20 30 21 69 4
90 -21 25 -76 19 -99 -11z m87 4 c29 -29 -1 -98 -42 -98 -31 0 -60 33 -51 59
14 46 65 67 93 39z"/>
<path d="M257 933 c-4 -3 -7 -17 -7 -30 0 -17 6 -23 23 -23 12 0 17 3 11 8 -6
4 -10 17 -9 30 2 22 -6 28 -18 15z"/>
<path d="M325 930 c-4 -6 -2 -17 5 -24 8 -11 8 -15 -2 -19 -9 -4 -9 -6 -1 -6
19 -1 27 20 12 30 -12 8 -12 11 1 19 9 6 10 10 3 10 -6 0 -15 -5 -18 -10z"/>
<path d="M386 913 c9 -38 11 -39 16 -3 3 21 0 30 -9 30 -10 0 -11 -8 -7 -27z"/>
<path d="M440 909 c0 -24 4 -30 17 -27 22 4 30 38 11 49 -22 15 -28 10 -28
-22z m30 -5 c0 -8 -4 -14 -10 -14 -5 0 -10 9 -10 21 0 11 5 17 10 14 6 -3 10
-13 10 -21z"/>
<path d="M1440 921 c0 -6 5 -11 12 -11 9 0 9 -3 0 -12 -16 -16 -15 -28 1 -28
17 0 16 52 0 58 -7 2 -13 -1 -13 -7z"/>
<path d="M1511 921 c-17 -11 -10 -46 9 -46 17 0 26 33 13 46 -4 4 -14 4 -22 0z
m19 -26 c0 -8 -4 -15 -10 -15 -5 0 -10 7 -10 15 0 8 5 15 10 15 6 0 10 -7 10
-15z"/>
<path d="M1575 920 c-3 -5 -1 -10 6 -10 10 0 10 -3 1 -12 -16 -16 -15 -28 1
-28 7 0 14 11 15 25 2 26 -12 42 -23 25z"/>
<path d="M1630 923 c0 -5 4 -15 10 -23 6 -9 5 -17 -3 -22 -8 -5 -7 -8 5 -8 12
0 16 8 16 30 -1 18 -6 30 -15 30 -7 0 -13 -3 -13 -7z"/>
<path d="M407 534 c-4 -4 -7 -14 -7 -23 1 -14 2 -13 11 2 11 19 34 23 42 7 3
-6 4 -5 3 2 -3 14 -38 23 -49 12z"/>
<path d="M1470 505 c0 -8 4 -15 10 -15 5 0 7 7 4 15 -4 8 -8 15 -10 15 -2 0
-4 -7 -4 -15z"/>
<path d="M1490 513 c0 -5 5 -15 10 -23 8 -12 10 -11 10 8 0 12 -4 22 -10 22
-5 0 -10 -3 -10 -7z"/>
<path d="M453 458 c-13 -6 -23 -15 -23 -20 0 -8 17 -1 50 22 20 13 1 12 -27
-2z"/>
<path d="M1444 437 c-8 -22 11 -46 26 -31 7 7 5 17 -4 30 -14 18 -15 18 -22 1z"/>
<path d="M476 403 c-3 -4 -6 -15 -6 -25 0 -24 33 -21 38 3 3 17 -21 33 -32 22z
m24 -23 c0 -5 -4 -10 -10 -10 -5 0 -10 5 -10 10 0 6 5 10 10 10 6 0 10 -4 10
-10z"/>
<path d="M1397 363 c-14 -13 -6 -33 13 -33 13 0 20 7 20 20 0 19 -20 27 -33
13z m23 -13 c0 -5 -4 -10 -10 -10 -5 0 -10 5 -10 10 0 6 5 10 10 10 6 0 10 -4
10 -10z"/>
<path d="M540 330 c-8 -16 -8 -18 4 -14 17 6 30 34 16 34 -5 0 -14 -9 -20 -20z"/>
<path d="M592 290 c-17 -27 -15 -35 4 -19 15 12 16 11 10 -11 -7 -24 -6 -24 8
-6 11 13 12 23 6 31 -5 7 -7 15 -3 18 3 4 2 7 -3 7 -5 0 -15 -9 -22 -20z"/>
<path d="M1321 289 c15 -30 32 -35 24 -8 -6 20 -5 22 6 12 7 -7 18 -13 23 -13
22 0 -16 25 -39 25 -19 1 -22 -2 -14 -16z"/>
<path d="M1260 251 c0 -13 29 -35 37 -28 7 8 -15 37 -28 37 -5 0 -9 -4 -9 -9z"/>
<path d="M667 243 c-4 -3 -7 -13 -7 -22 1 -13 3 -13 11 2 11 19 8 33 -4 20z"/>
<path d="M723 214 c-3 -8 -3 -18 1 -21 3 -4 6 -1 6 5 0 7 5 12 11 12 6 0 8 -7
5 -16 -3 -8 -2 -12 4 -9 15 9 12 32 -5 39 -9 3 -18 -1 -22 -10z"/>
<path d="M1137 207 c-15 -18 -15 -23 -3 -35 25 -26 49 12 28 45 -5 8 -12 5
-25 -10z m23 -16 c0 -6 -4 -13 -10 -16 -5 -3 -10 1 -10 9 0 9 5 16 10 16 6 0
10 -4 10 -9z"/>
<path d="M804 188 c-4 -6 1 -17 10 -24 16 -12 16 -13 -1 -17 -17 -4 -17 -5 0
-6 14 -1 37 33 37 55 0 9 -39 3 -46 -8z m26 -8 c0 -5 -4 -10 -10 -10 -5 0 -10
5 -10 10 0 6 5 10 10 10 6 0 10 -4 10 -10z"/>
<path d="M955 182 c-14 -14 -3 -42 15 -42 14 0 20 7 20 23 0 21 -21 33 -35 19z
m25 -22 c0 -5 -4 -10 -10 -10 -5 0 -10 5 -10 10 0 6 5 10 10 10 6 0 10 -4 10
-10z"/>
<path d="M1041 163 c2 -24 2 -25 6 -5 5 26 20 29 26 5 4 -14 5 -12 6 5 1 16
-5 22 -19 22 -15 0 -20 -6 -19 -27z"/>
</g>
</svg>
